<svg xmlns="http://www.w3.org/2000/svg" viewBox="0 0 136.19 21.05"><defs><style>.cls-1{fill:#fff;}</style></defs><g id="Capa_2" data-name="Capa 2"><g id="Capa_1-2" data-name="Capa 1"><path class="cls-1" d="M9.91,20.9a5,5,0,0,0-1.32-.11H1.7a2.36,2.36,0,0,1-1.11-.22.84.84,0,0,1-.42-.81,1,1,0,0,1,.21-.68,3.7,3.7,0,0,0,1,.13,2.09,2.09,0,0,0,.74-.1,1.14,1.14,0,0,0,.47-.36A3,3,0,0,0,3,17V3.52C3,2.69,2.47,2.17,1.49,2A3.06,3.06,0,0,1,.28,1.54.67.67,0,0,1,0,1,1.2,1.2,0,0,1,.21.19,1.93,1.93,0,0,0,.66.25H4L8.75.12q6.27,0,7.93,3.42A5.57,5.57,0,0,1,17.28,6a11.42,11.42,0,0,1-.17,2.1,6.63,6.63,0,0,1-.6,1.7,6.58,6.58,0,0,1-2.86,2.83,12.45,12.45,0,0,1-5.79,1.18H7.35c-.25,0-.37-.16-.37-.48,0-.71.19-1.1.58-1.19,3.35.07,5.39-.93,6.09-3A6.53,6.53,0,0,0,14,7.05a8.24,8.24,0,0,0-.24-2,4,4,0,0,0-.87-1.65C11.93,2.3,10.4,1.77,8.25,1.77a2.13,2.13,0,0,0-1.73.56,3.51,3.51,0,0,0-.4,2V17.72c0,.7.6,1.12,1.66,1.28a7.28,7.28,0,0,1,1.78.37,1.15,1.15,0,0,1,.46.34.76.76,0,0,1,.11.41A1.19,1.19,0,0,1,9.91,20.9Z"/><path class="cls-1" d="M32.14,19.21a5.73,5.73,0,0,0,.84.09,2.67,2.67,0,0,0,.56-.06,1.61,1.61,0,0,0,.49-.19,1,1,0,0,0,.48-.93A2.72,2.72,0,0,0,34.19,17l-1.26-3.12H24.45L23,17.64a2.2,2.2,0,0,0-.22.76.65.65,0,0,0,.08.35.6.6,0,0,0,.22.19,1.6,1.6,0,0,0,.39.14l.55.14a5.36,5.36,0,0,1,1.13.27.81.81,0,0,1,.53.75,1,1,0,0,1-.2.62,1.67,1.67,0,0,0-.47-.07H19.5c-1.18,0-1.78-.32-1.78-1a1.24,1.24,0,0,1,.2-.73,3.25,3.25,0,0,0,.84.13,1.21,1.21,0,0,0,1-.47A6.62,6.62,0,0,0,20.63,17L27.25,1c.19-.43.72-.72,1.59-.88A3.8,3.8,0,0,1,29.61,0c.54,0,.88.15,1,.44L32,3.79q3.87,9.14,4.47,10.66l1.21,3.17a4.1,4.1,0,0,0,.6,1.27,1.31,1.31,0,0,0,.53.33,3.53,3.53,0,0,0,.58.16,3.07,3.07,0,0,1,.53.15.74.74,0,0,1,.51.7,1,1,0,0,1-.2.61,2.08,2.08,0,0,0-.46-.06H33.33a2.78,2.78,0,0,1-1.07-.17.55.55,0,0,1-.38-.52A1.28,1.28,0,0,1,32.14,19.21Zm0-7.27L28.64,3.26,25.2,11.94Z"/><path class="cls-1" d="M51.33,20.9A5,5,0,0,0,50,20.79H43.12A2.36,2.36,0,0,1,42,20.57a.83.83,0,0,1-.41-.81,1,1,0,0,1,.2-.68,3.76,3.76,0,0,0,1,.13,2.09,2.09,0,0,0,.74-.1,1.08,1.08,0,0,0,.47-.36,3,3,0,0,0,.4-1.78V3.52c0-.83-.49-1.35-1.47-1.55a3.06,3.06,0,0,1-1.21-.43A.67.67,0,0,1,41.42,1a1.15,1.15,0,0,1,.22-.83,1.78,1.78,0,0,0,.44.06H45.4L50.17.12q6.27,0,7.93,3.42A5.57,5.57,0,0,1,58.7,6a11.42,11.42,0,0,1-.17,2.1,6.63,6.63,0,0,1-.6,1.7,6.58,6.58,0,0,1-2.86,2.83,12.45,12.45,0,0,1-5.79,1.18h-.5c-.25,0-.38-.16-.38-.48,0-.71.19-1.1.58-1.19,3.35.07,5.39-.93,6.09-3a6.53,6.53,0,0,0,.32-2.09,8.24,8.24,0,0,0-.24-2,4,4,0,0,0-.87-1.65c-.93-1.05-2.46-1.58-4.61-1.58a2.13,2.13,0,0,0-1.73.56,3.51,3.51,0,0,0-.4,2V17.72c.05.7.6,1.12,1.66,1.28a7.53,7.53,0,0,1,1.79.37,1.18,1.18,0,0,1,.45.34.76.76,0,0,1,.11.41A1.19,1.19,0,0,1,51.33,20.9Z"/><path class="cls-1" d="M69.11,20.9a4.94,4.94,0,0,0-1.31-.11H62.33a2.36,2.36,0,0,1-1.11-.22.83.83,0,0,1-.41-.81,1,1,0,0,1,.2-.68,3.76,3.76,0,0,0,1,.13,2.09,2.09,0,0,0,.74-.1,1.08,1.08,0,0,0,.47-.36,3,3,0,0,0,.4-1.78V3.27A1.21,1.21,0,0,0,63,2.08a2,2,0,0,0-.48-.15l-.59-.14a2.52,2.52,0,0,1-.49-.18A.64.64,0,0,1,61,1a1.47,1.47,0,0,1,.21-.89,5.28,5.28,0,0,0,1.33.1H64.3L69,.12h.58q4.13,0,6.18,1.46a4.81,4.81,0,0,1,2,4.14,5.9,5.9,0,0,1-1.3,3.67,7.18,7.18,0,0,1-4,2.52,6.94,6.94,0,0,1,1.59,1.76l1.42,2.08q2,2.91,3.3,2.91a2.08,2.08,0,0,0,.75-.1l.34-.13a.61.61,0,0,1,.24,0c.09,0,.18.07.28.21a.78.78,0,0,1,.15.47,1.31,1.31,0,0,1-.23.64,2.35,2.35,0,0,1-.64.66,3.4,3.4,0,0,1-2,.69,3.94,3.94,0,0,1-1.83-.38,5.16,5.16,0,0,1-1.31-1,8.48,8.48,0,0,1-1.09-1.39c-.32-.52-.63-1.05-.92-1.6l-.79-1.59a9.41,9.41,0,0,0-1.34-2.24,1.39,1.39,0,0,0-.92-.51H68.11c-.23,0-.34-.16-.34-.48a1.22,1.22,0,0,1,.51-1,2.62,2.62,0,0,1,1-.14,7.43,7.43,0,0,0,2-.37,5.12,5.12,0,0,0,1.8-.95A4.19,4.19,0,0,0,74.47,6a3.89,3.89,0,0,0-1.21-3,5.36,5.36,0,0,0-3.8-1.33,3.35,3.35,0,0,0-2.14.48A2.28,2.28,0,0,0,66.75,4V17.63c0,.7.2,1.15.59,1.34a3.91,3.91,0,0,0,.5.15l.6.14a2.2,2.2,0,0,1,.48.18.64.64,0,0,1,.41.57A1.47,1.47,0,0,1,69.11,20.9Z"/><path class="cls-1" d="M90.41,20.9a5,5,0,0,0-1.32-.11H83.5a2.3,2.3,0,0,1-1.11-.22.84.84,0,0,1-.42-.81,1.08,1.08,0,0,1,.2-.68,4.09,4.09,0,0,0,1,.13,2.27,2.27,0,0,0,.71-.09,1.12,1.12,0,0,0,.45-.34,2.83,2.83,0,0,0,.44-1.67V3.42c0-.71-.2-1.15-.59-1.33a2.2,2.2,0,0,0-.51-.16L83,1.79a2.73,2.73,0,0,1-.53-.18.76.76,0,0,1-.42-.73,1.08,1.08,0,0,1,.2-.73,5.13,5.13,0,0,0,1.32.1h5.46a2.35,2.35,0,0,1,1.11.23.82.82,0,0,1,.43.81,1,1,0,0,1-.22.68,4.33,4.33,0,0,0-1.11-.13c-.87,0-1.31.7-1.34,2.11V17.63c0,.7.2,1.15.59,1.34a3.28,3.28,0,0,0,.51.15l.63.14a2.51,2.51,0,0,1,.53.18.75.75,0,0,1,.45.72A1.18,1.18,0,0,1,90.41,20.9Z"/><path class="cls-1" d="M102.11,20.9a5.12,5.12,0,0,0-1.33-.11H95.19a2.43,2.43,0,0,1-1.12-.22.84.84,0,0,1-.42-.81,1,1,0,0,1,.22-.68,3.67,3.67,0,0,0,.95.13,2,2,0,0,0,.68-.09,1,1,0,0,0,.42-.34,3,3,0,0,0,.4-1.67V3.27c0-.63-.23-1-.62-1.19a1.7,1.7,0,0,0-.48-.15l-.64-.13a1.36,1.36,0,0,1-.82-.4.87.87,0,0,1-.15-.48,1.16,1.16,0,0,1,.22-.77,5.19,5.19,0,0,0,1.32.1h5.59a2.35,2.35,0,0,1,1.11.23.82.82,0,0,1,.42.81,1,1,0,0,1-.2.68,3.83,3.83,0,0,0-1-.13,2,2,0,0,0-.72.1,1.07,1.07,0,0,0-.46.34A2.82,2.82,0,0,0,99.48,4V17.79a1.35,1.35,0,0,0,.25.88,1.64,1.64,0,0,0,.82.41l.8.18a2.73,2.73,0,0,1,.53.18.75.75,0,0,1,.43.72A1.17,1.17,0,0,1,102.11,20.9Zm11.09-19a2.3,2.3,0,0,0-.71-.11,1.21,1.21,0,0,0-.62.14,4.61,4.61,0,0,0-.49.39c-.18.17-.38.37-.59.6l-7.08,7.32a7.75,7.75,0,0,1,4.25,3.3c.34.49.66,1,1,1.46l.82,1.39c.88,1.53,1.7,2.27,2.45,2.23a2.2,2.2,0,0,0,.86-.14,1.32,1.32,0,0,1,.45-.13c.09,0,.19.07.29.21a.78.78,0,0,1,.16.47,1.31,1.31,0,0,1-.23.64,2.26,2.26,0,0,1-.65.66,3.39,3.39,0,0,1-2.07.69,4.5,4.5,0,0,1-1.8-.3,3.49,3.49,0,0,1-1.24-.92,9.14,9.14,0,0,1-1-1.43c-.31-.53-.61-1.07-.9-1.61l-.84-1.63c-1-1.88-2.08-3-3.25-3.38a1,1,0,0,0-.48,0l-.49.07c-.11,0-.19-.16-.24-.38a2.06,2.06,0,0,1-.08-.54.46.46,0,0,1,.16-.35L107.6,3a1,1,0,0,0,.33-.59c0-.32-.5-.55-1.51-.68-.44-.06-.7-.15-.8-.29a.87.87,0,0,1-.14-.48,1.18,1.18,0,0,1,.22-.77,1.86,1.86,0,0,0,.45.06h5.21a3,3,0,0,1,1.87.39.58.58,0,0,1,.18.43A1.33,1.33,0,0,1,113.2,1.93Z"/><path class="cls-1" d="M128,19.21a5.73,5.73,0,0,0,.84.09,2.67,2.67,0,0,0,.56-.06,1.61,1.61,0,0,0,.49-.19,1,1,0,0,0,.48-.93A2.72,2.72,0,0,0,130,17l-1.26-3.12h-8.48l-1.5,3.8a2.2,2.2,0,0,0-.22.76.65.65,0,0,0,.08.35.56.56,0,0,0,.23.19,1.38,1.38,0,0,0,.38.14l.55.14a5.36,5.36,0,0,1,1.13.27.81.81,0,0,1,.53.75,1,1,0,0,1-.2.62,1.67,1.67,0,0,0-.47-.07h-5.46c-1.18,0-1.78-.32-1.78-1a1.24,1.24,0,0,1,.2-.73,3.25,3.25,0,0,0,.84.13,1.21,1.21,0,0,0,1-.47,6.62,6.62,0,0,0,.84-1.77l6.62-16c.19-.43.72-.72,1.59-.88a3.8,3.8,0,0,1,.77-.07c.54,0,.88.15,1,.44l1.34,3.35q3.87,9.14,4.47,10.66l1.21,3.17a4.1,4.1,0,0,0,.6,1.27,1.34,1.34,0,0,0,.52.33,4,4,0,0,0,.59.16,3.35,3.35,0,0,1,.53.15.74.74,0,0,1,.51.7.9.9,0,0,1-.21.61,1.93,1.93,0,0,0-.45-.06h-6.39a2.78,2.78,0,0,1-1.07-.17.55.55,0,0,1-.38-.52A1.28,1.28,0,0,1,128,19.21Zm0-7.27-3.51-8.68L121,11.94Z"/></g></g></svg>