<svg xmlns="http://www.w3.org/2000/svg" viewBox="0 0 922.6 487.33"><defs><style>.cls-1{fill:#ba4549;}</style></defs><g id="Capa_2" data-name="Capa 2"><g id="Capa_1-2" data-name="Capa 1"><path class="cls-1" d="M359.56,49.94c7.53,1.37,12.13-3.06,16.78-7.07,1.38-1.19,1.93-3.44,2.67-5.28s.93-4.08,2-5.73c2.13-3.36,1.77-6,.47-9.89-1.61-4.82-.93-10.5-.69-15.79.06-1.24,2.17-2.8,3.67-3.5,9.11-4.28,18.11-3.28,26.4,1.9A103.74,103.74,0,0,1,425.27,16c6.34,5.74,13.16,10.76,21,14,14.08,5.8,27,13.64,39.72,21.84,12.41,8,26.28,11.29,40.63,13.06a126.76,126.76,0,0,1,42.91,13.71,35.69,35.69,0,0,0,15.35,4.31c8.45.36,16.9,1.48,24.75,5.1a31.7,31.7,0,0,1,4.18,1.92c6.34,4.14,12.62,8.38,19.5,13-6.58,5-13.4,10.3-20.29,15.47a54.19,54.19,0,0,1-8.34,5.51,17.09,17.09,0,0,1-7.28,1.77c-27.22,0-54.45-.18-81.66,0-5.07,0-10.11,1.56-15.18,2.28-2.78.4-5.64,1-8.39.77-19.15-1.85-38.38-3.38-57.11-8.12A105,105,0,0,1,383,89.45c-3.64-3.92-7.94-7.23-12-10.68C362.22,71.43,356.31,63,359.56,49.94Zm244,48.29c-1.49-.62-2.92-1.58-4.46-1.8-5.84-.83-11.93-.63-17.51-2.26-12.78-3.74-25.64-7.54-37.84-12.78-12.58-5.41-25.2-8.9-38.79-6.8-11.27,1.74-20.53-2-27.44-10.23-5.3-6.31-12-9.4-19.13-12.24-5.47-2.19-11.11-4-16.72-5.79a40.42,40.42,0,0,0-5.63-1,8.69,8.69,0,0,0,4.06,3.53c10.7,6,22.87,9.53,32,18.09C482.22,76.38,494,79.62,507.47,79A60.75,60.75,0,0,1,533,83.77c9.05,3.64,18.26,6.86,27.39,10.29C574.31,99.3,588.74,99.71,603.59,98.23Z"/><path class="cls-1" d="M467.68,193.91c12.59,0,25.19-.25,37.77.12,5,.14,10.05,1.54,15,2.54,4.44.89,6.06,4.08,6.68,8.3,1.86,12.66,4.09,25.27,5.83,37.94,1.78,12.91,0,24.61-12.21,32.43a91.56,91.56,0,0,0-10.34,8c-5.3,4.58-6.34,8.61-2.47,14.08,8.43,11.87,13.23,25.38,18.93,38.55,5,11.51,11.2,22.48,16.89,33.67,1.05,2.06,2.39,4,3.31,6.07,2.73,6.24,1.76,9.71-4.6,12.27-3.89,1.56-8.43,1.89-12.7,2-3.8.11-7.61-.9-11.43-1.29-10.29-1.06-15.19-7.41-17-17-3.49-18.12-7.41-36.13-12.88-53.78-2.86-9.22-9.48-13.77-18.57-12a13.45,13.45,0,0,0-6.52,3.47c-6.31,6.37-10.84,13.77-10.08,23.2.81,10.2,1.35,20.48,3.17,30.52.88,4.81,4.33,9.19,6.77,13.69,3.66,6.74,1.79,10.79-6,11.34-10.49.73-21,1.11-31.55,1.17-8.57.05-13.05-6.15-9.57-13.92,4.51-10.09,5-20.88,7.07-31.4a8.08,8.08,0,0,0,.15-2.3c-2.42-29,2.12-57.94.42-86.93-.76-13.07-1.12-26.15-4.65-38.89a89.57,89.57,0,0,1-2.26-12.1c-.85-6.27,1.4-9.38,7.68-9.89,5.62-.46,11.29-.22,16.94-.24q13.11,0,26.21,0Zm-15.53,68.94.69.15c0,2.83,0,5.65,0,8.47,0,1,.18,2.06.12,3.08a8.72,8.72,0,0,0,4.91,8.87c3.82,1.93,7-.31,9.72-2.69,7.14-6.26,14-12.8,21.17-19.06,10.7-9.38,13.17-21,9.13-34.15-1.61-5.21-4.27-10.16-10.52-11-12.82-1.76-28.18,6.92-30.9,20.79C454.81,245.77,453.58,254.33,452.15,262.85Z"/><path class="cls-1" d="M222.07,382.36c1.24-2.06,2.37-4.38,3.88-6.41,7.07-9.45,10.76-20.38,13.84-31.55a18.47,18.47,0,0,0,.89-7.54c-2-12.41-4-24.83-6.57-37.12a35.39,35.39,0,0,0-5.31-11.85c-4.27-6.44-10.31-10.54-18.31-11.39-12.67-1.35-24,.95-32.73,11.19-1.49,1.76-3.26,3.28-4.83,5-7.65,8.29-11.62,17.95-11.28,29.36.26,8.69-.76,17.4,2.54,25.88,1.89,4.84,3.78,9.43,7.63,13.11,5,4.79,9.93,9.7,14.68,14.75a14.29,14.29,0,0,1,3.42,5.83c1,3.91-.66,6.57-4.67,7.34A66,66,0,0,1,173.76,390q-10.8.14-21.59-.29c-13.17-.5-20.39-8-20-21.09a103.17,103.17,0,0,1,1.92-18.33c4.37-20.82,9.09-41.56,13.76-62.31,4-17.73,8.32-35.38,12-53.16,1.16-5.65,2.19-11.69-1-17.31-4.59-8-10.72-9.17-16.41-.64-2,2.93-3.62,6.05-5.51,9.24-6.37-1.84-9.63-5.81-10.87-11.38-1.2-5.42,1.57-9.29,5.63-12.61,6.36-5.19,13.3-8.33,21.75-8.47,10-.17,20-1.57,30-1.54,12.83,0,25.66,1,38.49,1.44a14.57,14.57,0,0,1,9.67,4.05c5.84,5.26,10.68,11.37,13.12,18.72q6.75,20.4,12.16,41.22c4.27,16.37,7.81,32.92,11.78,49.36,2.53,10.49,4.69,21,5.21,31.85.39,8.19,2,16.31,2.83,24.48a92.65,92.65,0,0,1,.48,13.83c-.31,6.1-3.19,10.09-9.12,10.63-12.5,1.14-25.08,1.55-37.64,1.81C226.21,389.6,223.24,386.92,222.07,382.36Zm-.2-145.06c-1.13-2.82-2.38-7.9-5-12.13-4.83-7.79-11.91-9.29-19.65-4.36-3.8,2.42-7.68,5.44-10.11,9.12-3.75,5.69-6.39,12.14-9.28,18.37a6.59,6.59,0,0,0,1.52,7.78,6.46,6.46,0,0,0,8.41,1.18,56.6,56.6,0,0,1,23.86-7.52,14.27,14.27,0,0,0,3.71-1C219.73,247.16,221.88,244.06,221.87,237.3Z"/><path class="cls-1" d="M830.9,191.52c11.89.67,23.42,1.4,35,2a21.21,21.21,0,0,1,16.37,9,82.29,82.29,0,0,1,14.26,31.24c4.48,19.73,9.62,39.31,14.46,59,3.8,15.42,8.27,30.66,8.47,46.82.1,8.41,2.17,16.77,3,25.19a91.75,91.75,0,0,1-.07,13.77c-.32,5.49-2.95,9-8.24,9.32-13,.9-26.09,1.54-39.14,1.58-6.4,0-8.64-4.64-4.92-9.92a99.18,99.18,0,0,0,15.48-34.94c.58-2.47,1.29-5.13.94-7.55-1.82-12.42-3.28-24.95-6.16-37.14-3.44-14.54-15.4-24.3-27.47-24.1-12.67.22-22.71,5.14-31.89,14.27-18.09,18-16.1,45.88-9,62.51,2,4.56,5.71,8.47,9.1,12.27,3.75,4.21,8,8,12.09,11.88,2.4,2.28,4.33,5.19,2.62,8.12a10.62,10.62,0,0,1-6.55,4.5c-12,2.11-24.14,1.47-36.06-.19-10.45-1.46-16.36-9.74-15.61-20.44a155,155,0,0,1,2.89-19.74c3-15.05,6.16-30.08,9.55-45.05,2.6-11.48,5.7-22.85,8.46-34.29,1.57-6.47,3.09-13,4.31-19.5a242.72,242.72,0,0,0,3.75-24.2c.27-3.25-1.23-7.05-3-10-3.69-6.29-10-6.28-14.31-.28-1.48,2.07-2.35,4.56-3.74,6.7-2.94,4.52-4.68,4.71-8.48,1.21-7.15-6.57-7.33-13.75-.35-20.58a32.29,32.29,0,0,1,20-9C808.12,192.8,819.67,192.26,830.9,191.52Zm36.82,46.56c-.59-1.86-1.45-5.06-2.61-8.16-4.9-13.09-15.52-15.75-26-6.65-7.61,6.63-12.29,15-15.2,24.54-.93,3-1.28,6.18,1.49,8.57a7,7,0,0,0,8.6.68c7.93-4.57,16.55-6.7,25.55-7.91C864.77,248.46,867.54,244.74,867.72,238.08Z"/><path class="cls-1" d="M743.74,346.9c7.6-8.14,17.91-5.87,21,4.47a46.7,46.7,0,0,1,.37,24.39,14.48,14.48,0,0,1-8.82,10.09c-8.43,3.58-17.4,5.11-26.36,3.43s-14.88-8.35-18.72-16c-3.29-6.51-4.35-14.1-7-21-5.92-15.29-11.94-30.56-18.6-45.54-1.53-3.43-5.49-6.09-8.85-8.33-5.87-3.93-11.33-2.38-15.06,3.56s-4.61,12.41-4.11,19.21c.33,4.61.85,9.21,1,13.82a109,109,0,0,0,8.69,38.82,24.15,24.15,0,0,1,1.77,5.06c.87,5-1.19,8.5-6.22,8.65-11,.33-22.15.61-33.09-.52-7.37-.77-11.33-5.29-7-13.08,5.08-9.21,5-19.08,4.78-29.17-.35-16.7,0-33.41-.3-50.11-.2-9.22-1.49-18.41-1.94-27.63-.52-10.51-1-21-.88-31.57a60.54,60.54,0,0,0-5.78-26.85,20.13,20.13,0,0,1-1.81-5c-.9-5.19,1.4-9.15,6.53-9.39a305,305,0,0,1,31.57-.07c6,.33,8.37,5.21,6.48,11.46s-4,12.21-6.2,18.21c-4.58,12.2-3.26,24.3.69,36.23,2.85,8.63,11.4,10.64,18.38,4.67,12.09-10.33,17.86-24.13,21.15-39.18,1.15-5.25,1.35-10.73,2.7-15.91,2.53-9.71,8.16-14.36,18.05-15,7.17-.45,14.38-.44,21.57-.26a13.72,13.72,0,0,1,6.38,2.16c4.45,2.67,4.87,5.3,1.93,9.47a12.47,12.47,0,0,1-1.53,1.72c-12.09,11.55-20,26-27.88,40.41-2.42,4.41-6,8.26-9.35,12.08-3.05,3.45-6.82,6.27-9.79,9.78-4.12,4.86-2.64,9.21,3.5,10.87,3.7,1,7.51,1.65,11.29,2.32,7.53,1.35,11.55,6.49,13.56,13.22a56.06,56.06,0,0,1,2,12.92c.74,13.33,1.38,26.66,1.69,40,.13,5.53,2.46,9.89,5.55,14,3.21,4.3,6.55,5.35,9.77,3.36,4.38-2.69,5.58-7.18,3.14-12C746.52,352,745.06,349.38,743.74,346.9Z"/><path class="cls-1" d="M321.33,194.17c7.68-.45,15.36-1.16,23.06-1.28,5.62-.1,11.25.73,16.89.87,7.45.18,14.9.05,22.35.11,10.71.09,15.05,4.62,14.36,15.11-.71,10.73,2.86,20.74,5,31,1.28,6,2.73,12,3.44,18.12.77,6.66-3.39,11.66-7.2,16.46-7,8.79-17.23,12.67-27.1,17-4.22,1.85-8.63,3.29-12.78,5.28-6.75,3.23-10.86,8.43-11,16.24,0,1.53-.25,3.07-.41,4.6-.33,3.25-2,5.19-5.39,5.41-1,.06-2.05.15-3.07.18-10.79.23-13.64,1.5-14.26,15A57,57,0,0,0,332,368a122.59,122.59,0,0,1,5.46,11c1.76,4.37.71,6.81-3.56,8.58a22.35,22.35,0,0,1-7.43,1.76c-7.7.29-15.41.27-23.12.29a19.63,19.63,0,0,1-4.58-.53c-8.78-2.14-11.09-5.37-9.46-14.3a81.44,81.44,0,0,1,4.17-15.49c2.57-6.51,2.23-13,1.93-19.74-.21-4.85,0-9.72-.05-14.59-.06-10.78,0-21.56-.26-32.33-.31-12.58-1-25.15-1.4-37.73-.55-16.68-.75-33.34-7-49.29-2.61-6.68.12-10,7.64-10.65,8.95-.7,17.93-1,26.89-1.54C321.3,193.67,321.31,193.92,321.33,194.17Zm.22,71.67c.58,3.46,1,9.12,2.55,14.48,1.92,6.75,5.45,7.8,11.53,3.9A162.17,162.17,0,0,0,366.51,259a29.24,29.24,0,0,0,.81-39.25c-5.79-6.73-13.34-8.07-21.46-4.57-5.79,2.51-9.28,7.32-12.81,11.87-4.34,5.61-8.58,11.58-9.44,19C322.94,251.91,322.38,257.78,321.55,265.84Z"/><path class="cls-1" d="M36.67,194.23c7.16-.52,14.32-1.06,21.49-1.55a50.83,50.83,0,0,1,5.38-.08c10.78.42,21.55.88,32.32,1.32,2,.08,4.13-.08,6.16.19,6.32.86,10.31,4.94,10.06,11.26-.51,12.51,2.44,24.45,5.21,36.46.92,4,1.44,8.07,2.39,12.06,2.14,9.06-1.76,15.92-7.68,22.2s-13.76,9.76-21.44,13.33c-5.81,2.71-11.76,5.09-17.58,7.78-6.86,3.16-11.11,8.16-10.76,16.19a31.07,31.07,0,0,1-.32,3.83c-.33,3.93-2.28,5.93-6.42,6.08-13.17.44-15.71,1-16.07,17.08-.25,11.2,3.19,21.2,8.23,30.87a67.81,67.81,0,0,1,3.91,7.51c1.88,5,.37,8-4.72,9.34a41.45,41.45,0,0,1-9.13,1.36q-10,.38-20,.17a22.8,22.8,0,0,1-6.75-1.34C4,385.94,1.85,382.6,3.33,375.42c1.18-5.78,3.26-11.36,4.5-17.12a71,71,0,0,0,1.79-13.68c.55-31.6-.14-63.19-1.85-94.74-.6-11-2.17-21.95-3.65-32.87-.48-3.5-2-6.85-3.17-10.25-2.43-7.22-.25-11,7.25-11.63,9.45-.77,18.94-1.17,28.41-1.73Zm-1.11,67c.63,5.82.64,11.8,2,17.45,2.21,9,5.64,10.54,12.93,5.2a292.63,292.63,0,0,0,29-23.93c9.12-8.68,11.28-20,7-31.77a27.81,27.81,0,0,0-9-12c-7.17-5.33-16.44-4-23.76,3.16C42.08,230.72,35.17,244.36,35.56,261.22Z"/><path class="cls-1" d="M584.63,389.61c-6.9-.58-12.54-.93-18.15-1.56-7.23-.82-10.06-4.07-7.54-11,6.48-17.79,5.94-36.36,6.64-54.69.68-18.17-.52-36.42-.8-54.64a138.5,138.5,0,0,1,.34-15.39,79,79,0,0,0-5.74-37.58,52,52,0,0,1-3.24-10.23c-1.13-6.46,1.39-10.1,7.82-10.67,10-.89,20-1.6,30-1.57,9.34,0,12.37,4.17,10.68,13.43-.78,4.24-2.34,8.33-3.34,12.54-5.09,21.38-6,43.21-6,65-.08,23.57.42,47.17,1.64,70.7.4,7.72,3.71,15.33,5.94,22.91,1.94,6.6.78,9.46-5.73,11.63a27.87,27.87,0,0,1-6.79,1C588,389.74,585.69,389.61,584.63,389.61Z"/><path class="cls-1" d="M335.43,9.81c5.8-5.24,6-5,10.6-1.23a89.5,89.5,0,0,0,13.23,9.06c4.79,2.66,9.79,3.38,13.56-2.18.34-.5,1.35-.54,2.27-.88,6.17,7.66,3,15.24,0,22.7-1.58,3.85-9.37,8.55-13.92,8.88-.15-.47-.57-1.1-.41-1.38,4-6.83,1.49-12.3-3.75-17s-10.52-8.93-15.81-13.36C339.3,12.91,337.41,11.42,335.43,9.81Z"/><path class="cls-1" d="M292.05,43.85C305,27.52,322.76,25,341.8,36.57,333.05,49.06,308.42,52.86,292.05,43.85Zm45.39-5.91c-12.92-5.06-22.65-4.08-29,3C318.28,41.46,327.1,42,337.44,37.94Z"/><path class="cls-1" d="M329.5,74.66c-2.58-11.53,4.3-23,16.7-28.7C351.48,55.81,343.35,70.17,329.5,74.66Zm14.71-21.09-1.49-1.37c-3.13,2.68-6.22,5.39-5,10.8Z"/><path class="cls-1" d="M124.6,487l-9.89-13.91a30,30,0,0,1-3.47.19H99.62V487H95.05V443.69h16.19c5.53,0,9.85,1.32,13,3.95s4.69,6.27,4.69,10.89a13.41,13.41,0,0,1-9.89,13.6L129.6,487ZM121,466.5a9.81,9.81,0,0,0,3.4-8q0-5.26-3.4-8.07t-9.83-2.82H99.62v21.7h11.5Q117.56,469.34,121,466.5Z"/><path class="cls-1" d="M206.2,483V487H175.6V443.69h29.67v3.95h-25.1V463h22.38v3.89H180.17V483Z"/><path class="cls-1" d="M255.5,485.79a17,17,0,0,1-6.83-4.08l1.79-3.53a17.17,17.17,0,0,0,6.25,3.81,23,23,0,0,0,8,1.45c3.88,0,6.78-.71,8.72-2.13a6.58,6.58,0,0,0,2.9-5.54,5.53,5.53,0,0,0-1.57-4.14,10.67,10.67,0,0,0-3.87-2.38,61.27,61.27,0,0,0-6.36-1.82,67.84,67.84,0,0,1-7.79-2.38,12.83,12.83,0,0,1-5-3.5,9.26,9.26,0,0,1-2.07-6.36,10.82,10.82,0,0,1,1.73-6,11.93,11.93,0,0,1,5.32-4.3,21.76,21.76,0,0,1,8.9-1.6,26.2,26.2,0,0,1,7.26,1,21,21,0,0,1,6.15,2.81l-1.54,3.65a21.3,21.3,0,0,0-5.81-2.69,21.61,21.61,0,0,0-6.06-.9c-3.79,0-6.65.73-8.56,2.2a6.8,6.8,0,0,0-2.88,5.65,5.66,5.66,0,0,0,1.58,4.18,10.36,10.36,0,0,0,4,2.41q2.37.83,6.39,1.82a64.06,64.06,0,0,1,7.7,2.32,12.65,12.65,0,0,1,5,3.46,9.18,9.18,0,0,1,2,6.28,10.68,10.68,0,0,1-1.76,6,11.9,11.9,0,0,1-5.41,4.27,22.66,22.66,0,0,1-9,1.57A27.82,27.82,0,0,1,255.5,485.79Z"/><path class="cls-1" d="M334.47,447.64h-15.2v-3.95h35v3.95H339.05V487h-4.58Z"/><path class="cls-1" d="M422.38,475.4H398.27L393.08,487h-4.76l19.78-43.27h4.52L432.4,487h-4.82Zm-1.67-3.71-10.38-23.24-10.39,23.24Z"/><path class="cls-1" d="M478.83,482.51q-4.71-4.81-4.7-14V443.69h4.57v24.6q0,7.54,3.4,11.25t9.83,3.71q6.49,0,9.89-3.71t3.4-11.25v-24.6h4.45v24.79q0,9.21-4.66,14c-3.12,3.22-7.47,4.82-13.08,4.82S482,485.73,478.83,482.51Z"/><path class="cls-1" d="M588.87,487,579,473.05a29.72,29.72,0,0,1-3.46.19H563.89V487h-4.58V443.69h16.2q8.28,0,13,3.95t4.7,10.89a14.08,14.08,0,0,1-2.56,8.56,14.23,14.23,0,0,1-7.33,5L593.87,487Zm-3.65-20.46a9.84,9.84,0,0,0,3.4-8c0-3.51-1.14-6.2-3.4-8.07s-5.55-2.82-9.83-2.82h-11.5v21.7h11.5Q581.81,469.34,585.22,466.5Z"/><path class="cls-1" d="M667,475.4H642.9L637.7,487h-4.76l19.78-43.27h4.52L677,487H672.2Zm-1.67-3.71L655,448.45l-10.39,23.24Z"/><path class="cls-1" d="M756.21,443.69V487h-3.77l-27.82-35.11V487h-4.57V443.69h3.77L751.7,478.8V443.69Z"/><path class="cls-1" d="M814.57,447.64H799.36v-3.95h35v3.95H819.14V487h-4.57Z"/></g></g></svg>