<svg xmlns="http://www.w3.org/2000/svg" viewBox="0 0 182.62 41.7"><defs><style>.cls-1{fill:#fff;}</style></defs><g id="Capa_2" data-name="Capa 2"><g id="Capa_1-2" data-name="Capa 1"><path class="cls-1" d="M68.18,19.29a1.16,1.16,0,0,1,.25-1.1.77.77,0,0,0,.39-1.08,1,1,0,0,1,.27-.67l.16-.18a8.1,8.1,0,0,1,4.13-3.52l.23-.17.4-.05.25-.18a10.56,10.56,0,0,1,4.58,0c.08.22.21.33.44.17A8.24,8.24,0,0,1,85,18.92a6.46,6.46,0,0,1,0,3.38v.27A8.49,8.49,0,0,1,74.66,29l-.43-.07a6.07,6.07,0,0,1-1.93-.71L72.11,28c-1.6-1.19-3.06-2.49-3.52-4.57.24-.43-.07-.54-.39-.65L68,19.94C68.31,19.8,68.39,19.59,68.18,19.29Zm10.45-3.51c-.24-.48-.69-.41-1.11-.42a7.4,7.4,0,0,0-2.39.19c-.47-.2-.7.06-.87.44A5,5,0,0,0,72,18.2l-.15.24a.47.47,0,0,1-.06.19c-.21.08-.33.2-.17.43a4.66,4.66,0,0,0,1.15,5.15c1.44,1.39,3.06,2.21,5.13,1.59l.25-.16a5.4,5.4,0,0,0,3.55-3.74,1.89,1.89,0,0,0,0-2.4l-.09-.4-.16-.25,0-.26a1.17,1.17,0,0,0-.6-1.07,3.62,3.62,0,0,1-1.16-1.08c-.18-.5-.59-.61-1.06-.66Z"/><path class="cls-1" d="M98.67,26.05A4.1,4.1,0,0,1,96,28.64c-.69.07-1.44,0-1.94.62a3.55,3.55,0,0,1-2-.21c-.2-.41-.5-.43-.85-.23-.6,0-.45.47-.46.79,0,1.05,0,2.1,0,3.16,0,.77-.3,1.16-1.17,1.12-2-.1-2,.42-2-2.06,0-4.38,0-8.77,0-13.15,0-.54-.4-1.39.5-1.54s1.87-.39,2,1c1.51-1,3-1.78,4.79-1.22,1.53.47,3.1.95,3.78,2.65a.65.65,0,0,0,.32.59,7.59,7.59,0,0,1,0,5.45A.61.61,0,0,0,98.67,26.05Zm-3.48-.57c.06-.09.11-.18.18-.27a3.43,3.43,0,0,0,.5-4,2.7,2.7,0,0,0-3.18-1.54,2.16,2.16,0,0,0-1.87,2c0,1.05,0,2.1,0,3.15a1,1,0,0,0,.63,1A3.17,3.17,0,0,0,95,25.59.91.91,0,0,0,95.19,25.48Z"/><path class="cls-1" d="M154.67,17a6.2,6.2,0,0,1,7.15,2.09,6.21,6.21,0,0,1,.26.59l.17.23c.07.49.72.87.25,1.46,0,0,0,.09,0,.14.4.28.33.68.28,1.08v.54a1.42,1.42,0,0,1-.08.93.88.88,0,0,0-.22.64,1.5,1.5,0,0,1-.29,1.1.62.62,0,0,0-.36.6c-1.58,2.71-4.23,3.42-7.41,2l-.19-.17-1.07-.8c.08,1-.15,1.57-1.14,1.46s-1.11-.69-1.11-1.5c0-4,0-8,0-12,0-.8,0-1.6,0-2.4s.27-.95,1-.93c2.51.08,2.23-.42,2.25,2.13,0,.91,0,1.81,0,2.72C154.22,17.52,154.44,17.27,154.67,17Zm-.51,5.39c0,.51,0,1,0,1.52a2.56,2.56,0,0,0,3.52,2.14,3.54,3.54,0,0,0,1.79-1.9,3.28,3.28,0,0,0-2.7-4.46C154.16,19.69,154.16,19.69,154.16,22.41Z"/><path class="cls-1" d="M178.31,23.47c-1.12,0-2.25,0-3.37,0-.56,0-.73.22-.54.73A3.06,3.06,0,0,0,178.57,26c.26-.11.51-.27.76-.39,1-.5,1.39-.33,2.09.9.51.89-.11,1.24-.71,1.57-3.14,1.72-6.43,1.55-8.71-1.7a6.23,6.23,0,0,1,1.17-8.2,6.09,6.09,0,0,1,5.46-1.34c2.23.48,4.39,3.73,3.93,6-.13.59-.54.61-1,.62C180.49,23.48,179.4,23.47,178.31,23.47Zm-1.48-2.11c.58,0,1.16,0,1.74,0,.75,0,.78-.36.5-.89a2.6,2.6,0,0,0-2.37-1.19,2.13,2.13,0,0,0-1.93,1.1c-.34.48-.4,1.06.54,1C175.82,21.33,176.33,21.36,176.83,21.36Z"/><path class="cls-1" d="M108.7,23.47c-1,0-2,0-3,0s-1,.34-.71,1.05A3.21,3.21,0,0,0,109,26.09l.68-.31a1.63,1.63,0,0,1,2.46,1.08.69.69,0,0,1-.33.84c-3.81,2.71-7.93,2-9.83-2.41a6,6,0,0,1,4.33-8.43,5.5,5.5,0,0,1,6.37,3.48,7.09,7.09,0,0,1,.34,2c0,.68-.25,1.23-1.16,1.17S109.75,23.47,108.7,23.47Zm-1.38-2.11c.61,0,1.22,0,1.84,0s.62-.18.42-.74c-.39-1.1-1.32-1.17-2.2-1.32a2.33,2.33,0,0,0-2.11,1,.83.83,0,0,0-.16.9c.14.27.45.17.69.18C106.3,21.37,106.81,21.36,107.32,21.36Z"/><path class="cls-1" d="M131,22c0-1.92-.05-3.85,0-5.77,0-.93-.29-1.19-1.17-1.13s-1.82,0-2.72,0-1.23-.28-1.2-1.22c0-1.88,0-1.88,1.86-1.88,3.44,0,6.88,0,10.33,0,.84,0,1.15.24,1.11,1.12-.11,2.14.46,2-2,2-2.77,0-2.77,0-2.77,2.8,0,3.19,0,6.38,0,9.57,0,1-.27,1.49-1.41,1.44-2-.09-2,0-2-2Z"/><path class="cls-1" d="M148.1,24.42V27.8c0,.44,0,1-.55,1s-1.44.36-1.77-.38c-.24-.55-.48-.47-.76-.23-.49.42-1.15.45-1.65.76-1.59,1-4.23-.33-5-1.76A3.8,3.8,0,0,1,139.77,22a6.91,6.91,0,0,1,4.1-.45c.46,0,.94.4,1.17-.24.18-.49-.71-1.76-1.18-1.76a9.31,9.31,0,0,0-3.53.29c-.69.26-1.07-.09-1.08-.59s-1-1.48.39-1.93a12.13,12.13,0,0,1,4.77-.62,3.7,3.7,0,0,1,3.51,3.44A41.42,41.42,0,0,1,148.1,24.42Zm-4.83-1c-1.42,0-2.34.67-2.32,1.68a1.71,1.71,0,0,0,1.84,1.64c1.38,0,2.07-.67,2.07-2S144.69,23.38,143.27,23.39Z"/><path class="cls-1" d="M123.12,20.81a2.26,2.26,0,0,0-2.84-1.09,2.63,2.63,0,0,0-1.56,2.15c0,1.92,0,3.84,0,5.75,0,.93-.23,1.29-1.21,1.27-2.06,0-2.06,0-2.06-2.07q0-4.3,0-8.59c0-.43-.18-1.13.51-1.08s1.58-.66,1.88.56c.13.52.34.38.65.11a2.52,2.52,0,0,1,1.28-.72l.23-.17a5.53,5.53,0,0,1,5,.75,4.22,4.22,0,0,1,1,1.24.75.75,0,0,0,.32.8c.62,2.72.2,5.48.32,8.23,0,.72-.32.92-1,.93-2.25.06-2.25.08-2.25-2.11V21.22C123.46,21,123.32,20.87,123.12,20.81Z"/><path class="cls-1" d="M165.11,19.84c0-2.21,0-4.42,0-6.63,0-.83.26-1.15,1.14-1.12,2.3.07,2.09-.25,2.09,2.11,0,3.37,0,6.74,0,10.11a1.38,1.38,0,0,0,.72,1.46c.91.54.4,1.74.37,2.63,0,.73-.78.41-1.23.48a6.32,6.32,0,0,1-.87,0,2.2,2.2,0,0,1-2.22-2.29Z"/><path class="cls-1" d="M94.09,29.26c.5-.65,1.25-.55,1.94-.62C95.52,29.28,94.79,29.22,94.09,29.26Z"/><path class="cls-1" d="M68.82,17.11a.77.77,0,0,1-.39,1.08A1.44,1.44,0,0,1,68.82,17.11Z"/><path class="cls-1" d="M68.2,22.77c.32.11.63.22.39.65C68.29,23.31,68.11,23.12,68.2,22.77Z"/><path class="cls-1" d="M91.28,28.82c.35-.2.65-.18.85.23C91.83,29,91.46,29.28,91.28,28.82Z"/><path class="cls-1" d="M162.5,24.72a.88.88,0,0,1,.22-.64A.58.58,0,0,1,162.5,24.72Z"/><path class="cls-1" d="M162.8,23.15v-.54A.45.45,0,0,1,162.8,23.15Z"/><path class="cls-1" d="M126.27,19.72a.75.75,0,0,1-.32-.8A1.35,1.35,0,0,1,126.27,19.72Z"/><path class="cls-1" d="M68.18,19.29c.21.3.13.51-.19.65C68,19.7,67.86,19.43,68.18,19.29Z"/><path class="cls-1" d="M154.67,17c-.23.25-.45.5-.56-.08Z"/><path class="cls-1" d="M161.85,26.42a.62.62,0,0,1,.36-.6C162.14,26,162.11,26.3,161.85,26.42Z"/><path class="cls-1" d="M99,20.15a.65.65,0,0,1-.32-.59C98.82,19.76,98.92,20,99,20.15Z"/><path class="cls-1" d="M98.67,26.05A.61.61,0,0,1,99,25.6.5.5,0,0,1,98.67,26.05Z"/><path class="cls-1" d="M79.28,12.52c-.23.16-.36.05-.44-.17Z"/><path class="cls-1" d="M123.12,20.81c.2.06.34.17.23.41Z"/><path class="cls-1" d="M162.52,21.53c0-.05,0-.1,0-.14l.07.12Z"/><path class="cls-1" d="M85,22.57V22.3Q85.26,22.44,85,22.57Z"/><path class="cls-1" d="M73.61,12.57l-.23.17C73.41,12.62,73.46,12.54,73.61,12.57Z"/><path class="cls-1" d="M162.25,19.93l-.17-.23C162.2,19.73,162.28,19.79,162.25,19.93Z"/><path class="cls-1" d="M69.25,16.26l-.16.18C69.06,16.3,69.11,16.24,69.25,16.26Z"/><path class="cls-1" d="M120,16.93l-.23.17C119.82,17,119.87,16.9,120,16.93Z"/><path class="cls-1" d="M74.26,12.34l-.25.18C74.05,12.4,74.11,12.3,74.26,12.34Z"/><path class="cls-1" d="M72.11,28l.19.18C72.16,28.19,72.1,28.13,72.11,28Z"/><path class="cls-1" d="M154.25,28.22l.19.17C154.31,28.41,154.23,28.36,154.25,28.22Z"/><path class="cls-1" d="M74.23,28.88l.43.07C74.49,29.09,74.34,29.12,74.23,28.88Z"/><path class="cls-1" d="M81.73,21.9l0-2.4A1.89,1.89,0,0,1,81.73,21.9Z"/><path class="cls-1" d="M79.71,16.44a2.74,2.74,0,0,1-1.06-.66C79.12,15.83,79.53,15.94,79.71,16.44Z"/><path class="cls-1" d="M81.47,18.59a1.44,1.44,0,0,1-.6-1.07A1.17,1.17,0,0,1,81.47,18.59Z"/><path class="cls-1" d="M78.63,15.78a1.33,1.33,0,0,1-1.11-.42C77.94,15.37,78.39,15.3,78.63,15.78Z"/><path class="cls-1" d="M75.13,15.55a1,1,0,0,1-.87.44C74.43,15.61,74.66,15.35,75.13,15.55Z"/><path class="cls-1" d="M71.82,18.63c0,.18.05.35-.17.43C71.49,18.83,71.61,18.71,71.82,18.63Z"/><path class="cls-1" d="M72,18.2c0,.14,0,.19-.15.24Z"/><path class="cls-1" d="M77.93,25.8c0-.12.11-.19.25-.16Z"/><path class="cls-1" d="M81.66,19.1c-.12,0-.2-.11-.16-.25Z"/><path class="cls-1" d="M95,25.59c0-.14,0-.18.16-.11A.91.91,0,0,1,95,25.59Z"/><path class="cls-1" d="M36.45,0A20.85,20.85,0,1,0,57.3,20.85,20.84,20.84,0,0,0,36.45,0Zm0,26.19a5.34,5.34,0,1,1,5.34-5.34A5.34,5.34,0,0,1,36.45,26.19Z"/><circle class="cls-1" cx="5.2" cy="20.52" r="5.2"/></g></g></svg>