<svg xmlns="http://www.w3.org/2000/svg" viewBox="0 0 183.15 29.58"><defs><style>.cls-1{fill:#fff;}</style></defs><g id="Capa_2" data-name="Capa 2"><g id="Capa_1-2" data-name="Capa 1"><g id="g6"><path id="path2" class="cls-1" d="M84.66,11.62C81.94,11.62,80,13.75,80,17V29H75.84V7.89H80v2.59a5.57,5.57,0,0,1,5-2.73H86.4v3.87ZM73,18.47c0-6.31-4.49-11-10.56-11a10.88,10.88,0,0,0-10.81,11v.07A10.91,10.91,0,0,0,62.8,29.53,11.08,11.08,0,0,0,71.93,25l-3-2.22a7.39,7.39,0,0,1-6.11,3.08,7.08,7.08,0,0,1-7-6.05H73Zm-17-1.94a6.64,6.64,0,0,1,6.44-5.41,6.56,6.56,0,0,1,6.4,5.41ZM38.42,7.45A10.48,10.48,0,0,0,31,10.57V0H26.78V29H30.9V26.36a10.71,10.71,0,0,0,7.53,3.17A11,11,0,1,0,38.9,7.45h-.48Zm-.3,18.36a7.32,7.32,0,1,1,7.29-7.35v.06a7.26,7.26,0,0,1-7.26,7.27h0Zm-26.66-.2c4,0,7.14-3.08,7.14-7.69V0h4.31V29H18.65V26.29A10.61,10.61,0,0,1,11,29.52C4.77,29.52,0,25,0,18.15V0H4.39V17.94C4.39,22.58,7.38,25.61,11.46,25.61Z"/><path id="path4" class="cls-1" d="M96.76,0h20.37V5H102.26v7.08h14.45v4.82H102.26v7.19h14.87v5H96.76Zm76.62,29.58c6.25,0,9.77-3,9.77-7.1,0-2.92-2.09-5.11-6.45-6.05l-4.61-.94c-2.68-.5-3.52-1-3.52-2,0-1.29,1.29-2.08,3.67-2.08,2.58,0,4.49.69,5,3.07h5.41C182.33,10,179.11,7,172.57,7,166.92,7,163,9.37,163,13.89c0,3.13,2.18,5.16,6.89,6.15L175,21.23c2,.4,2.57.95,2.57,1.79,0,1.34-1.53,2.18-4,2.18-3.12,0-4.91-.69-5.6-3.07h-5.43c.79,4.48,4.11,7.45,10.85,7.45ZM161,29h-5.85c-3.67,0-5.7-2.29-5.7-5.17V12.46H145.3V7.6h4.13V1.49h5.43V7.6H161v4.86h-6.1v10c0,1.14.79,1.69,2,1.69H161ZM137.53,7.61V9.54a10.51,10.51,0,0,0-6.84-2.49,11.27,11.27,0,1,0-.48,22.53h.48a10.51,10.51,0,0,0,6.84-2.49V29H143V7.6Zm-6.39,17.27a6.56,6.56,0,1,1,6.48-6.63v.08a6.5,6.5,0,0,1-6.42,6.54h-.06Z"/></g></g></g></svg>