<svg xmlns="http://www.w3.org/2000/svg" viewBox="0 0 117.35 43.95"><defs><style>.cls-1{fill:#fff;}</style></defs><g id="Capa_2" data-name="Capa 2"><g id="Capa_1-2" data-name="Capa 1"><path class="cls-1" d="M62.41,19a14.77,14.77,0,0,1,1.1-1,8.15,8.15,0,0,1,1.74-1.11,8.33,8.33,0,0,1,2.5-.76,8.81,8.81,0,0,1,2.11-.09,10.86,10.86,0,0,1,2.26.5A9.76,9.76,0,0,1,75,18.24a8.69,8.69,0,0,1,1.25,1.25,12.65,12.65,0,0,1,.94,1.36,10.74,10.74,0,0,1,.69,1.35,17,17,0,0,1,.54,1.71,8.88,8.88,0,0,1,.27,1.61,10.48,10.48,0,0,1,0,2c-.06.59-.15,1.16-.26,1.73A10.15,10.15,0,0,1,78,30.81a12,12,0,0,1-1.41,2.58A9.76,9.76,0,0,1,75.15,35a9.14,9.14,0,0,1-2.31,1.49,8.22,8.22,0,0,1-2.51.73,9.07,9.07,0,0,1-2.21,0,11,11,0,0,1-1.41-.26,8.76,8.76,0,0,1-1.53-.62,9.18,9.18,0,0,1-1.72-1.11,6.15,6.15,0,0,1-.53-.49l-.47-.47c-.07,0,0,.09,0,.13,0,2.23,0,4.45,0,6.68a2.83,2.83,0,0,1-1.14,2.26,3,3,0,0,1-3.69,0,2.39,2.39,0,0,1-.7-.79,2.69,2.69,0,0,1-.38-1.24c0-1.4,0-2.81,0-4.21,0-5.91,0-11.82,0-17.73A3,3,0,0,1,57,17.5a2.75,2.75,0,0,1,1.56-1.12,3,3,0,0,1,2,.1,2.74,2.74,0,0,1,1.73,2.05C62.36,18.69,62.3,18.87,62.41,19Zm5.28,13.47c.23,0,.45,0,.67,0a4.42,4.42,0,0,0,1.56-.39,5.75,5.75,0,0,0,3.39-5.52,5.54,5.54,0,0,0-.41-2,5.39,5.39,0,0,0-3.21-3.24A5.19,5.19,0,0,0,67.37,21a4.51,4.51,0,0,0-1.31.28,5.17,5.17,0,0,0-2.32,1.65,5.92,5.92,0,0,0-1.31,3.05,5.94,5.94,0,0,0,2.14,5.39A5.1,5.1,0,0,0,67.69,32.49Z" transform="translate(0)"/><path class="cls-1" d="M12.53,28.58c.27-.63.52-1.24.77-1.85.61-1.46,1.23-2.91,1.8-4.38.34-.84.73-1.65,1.08-2.49a12.23,12.23,0,0,1,1.19-2.37,3.25,3.25,0,0,1,2-1.41,3.68,3.68,0,0,1,1.05,0,3,3,0,0,1,1.26.47,3.58,3.58,0,0,1,.52.51,3.69,3.69,0,0,1,.55,1c0,.08,0,.22,0,.33a3.47,3.47,0,0,1-.11,1.6,4.5,4.5,0,0,1-.39,1.26c-.69,1.49-1.34,3-2.07,4.48-.48,1-.92,2-1.38,3-.79,1.7-1.6,3.4-2.37,5.1-.64,1.4-1.29,2.8-2,4.14a15.39,15.39,0,0,1-2.63,3.53,9.12,9.12,0,0,1-2.42,1.7,10.17,10.17,0,0,1-1.42.55c-.32.09-.65.09-1,.17A5.22,5.22,0,0,1,5.83,44,7.19,7.19,0,0,1,4,43.72c-.45-.13-.9-.27-1.33-.43A3.13,3.13,0,0,1,2,43a4.05,4.05,0,0,1-1-.75,3.91,3.91,0,0,1-.91-1.5,2.69,2.69,0,0,1,1.74-3.23,3.2,3.2,0,0,1,2.05,0c.58.18,1.08.54,1.66.72a2.18,2.18,0,0,0,1.68-.06,1.57,1.57,0,0,0,.42-.35,7.23,7.23,0,0,0,1.19-1.34,7.72,7.72,0,0,0,.67-1.53.23.23,0,0,0,0-.2c-.25-.46-.52-.92-.77-1.39l-.91-1.73c-.3-.56-.61-1.11-.91-1.68s-.54-1-.81-1.52l-.72-1.33-1-1.85c-.46-.84-.94-1.66-1.45-2.47a14.67,14.67,0,0,1-1.07-1.94,3.63,3.63,0,0,1-.05-3.29,2.6,2.6,0,0,1,1.19-1.15,3,3,0,0,1,2.94.14A3.85,3.85,0,0,1,7.2,18c.37.63.67,1.29,1,2s.63,1.21.94,1.82c1.14,2.22,2.26,4.45,3.34,6.69Z" transform="translate(0)"/><path class="cls-1" d="M29,28.63a.39.39,0,0,0,0,.28,5.49,5.49,0,0,0,3,3,5.08,5.08,0,0,0,1,.29,4.66,4.66,0,0,0,1.49,0,6.43,6.43,0,0,0,2-.63c.52-.26,1-.49,1.57-.73a3.17,3.17,0,0,1,1.18-.36,3,3,0,0,1,1.54.27,2.39,2.39,0,0,1,1.07,1.13,2.1,2.1,0,0,1,.07,1.48,4.16,4.16,0,0,1-2,2.41,9.21,9.21,0,0,1-2.18,1,12.19,12.19,0,0,1-2.1.41,18.91,18.91,0,0,1-3,0,5.84,5.84,0,0,1-1.3-.24,7.49,7.49,0,0,1-1.22-.38,13.7,13.7,0,0,1-1.91-1A11,11,0,0,1,26.28,34a8.17,8.17,0,0,1-1.38-1.78,12.37,12.37,0,0,1-1.16-2.84,12.51,12.51,0,0,1-.27-3.45,3.13,3.13,0,0,1,0-.69c.11-.42.19-.85.29-1.28a11.14,11.14,0,0,1,.62-1.79,10,10,0,0,1,1.08-1.87,9.61,9.61,0,0,1,.89-1.11,7.87,7.87,0,0,1,1.72-1.48,9.15,9.15,0,0,1,1.05-.6,12.67,12.67,0,0,1,1.49-.56,15.93,15.93,0,0,1,1.55-.38,4.43,4.43,0,0,1,.87-.16c.6,0,1.21,0,1.82.06s1,.13,1.42.21a4.35,4.35,0,0,1,1.4.46.71.71,0,0,0,.2,0c.38.05.64.34,1,.46a8,8,0,0,1,1.65,1,8.92,8.92,0,0,1,1.24,1.14,8.8,8.8,0,0,1,.87,1.14,9.13,9.13,0,0,1,1,1.82,9.71,9.71,0,0,1,.62,2,5.65,5.65,0,0,1,.1,1.92,2.56,2.56,0,0,1-1.77,2.11,4.16,4.16,0,0,1-1.35.16l-11.35,0H29s-.09,0-.1,0S29,28.63,29,28.63Zm5-3.72h4.83c.1,0,.25,0,.18-.16s-.18-.58-.32-.86a5.13,5.13,0,0,0-1.83-2.09,4,4,0,0,0-1-.53A8.62,8.62,0,0,0,34.72,21a4.64,4.64,0,0,0-2,.09,5.07,5.07,0,0,0-1.67.77,5.42,5.42,0,0,0-2,2.78c-.08.26-.06.28.22.28Z" transform="translate(0)"/><path class="cls-1" d="M90.34,4.2a2.56,2.56,0,0,1,1.06-2A9.13,9.13,0,0,1,95,.59a17.58,17.58,0,0,1,3-.55,10.48,10.48,0,0,1,1.48,0,3.88,3.88,0,0,1,1,.11,3.46,3.46,0,0,1,1,.41,3.29,3.29,0,0,1,.73.61,3.22,3.22,0,0,1,.47,1.05c.1.25,0,.54.11.78s0,.68.11,1a3.65,3.65,0,0,1,0,.81c0,.59-.06,1.18-.11,1.76a.68.68,0,0,0,0,.42.25.25,0,0,1,0,.19.66.66,0,0,0-.08.51c.05.23-.06.44,0,.66a15.22,15.22,0,0,1-.1,1.65,1.31,1.31,0,0,0,0,.52c.06.18-.1.33-.1.53a9.75,9.75,0,0,1-.08,1.52.67.67,0,0,0,0,.37s0,.11,0,.14c-.19.31,0,.67-.13,1a.65.65,0,0,0,0,.47.23.23,0,0,1,0,.21.46.46,0,0,0-.06.22,12.12,12.12,0,0,1-.1,1.59c0,.18.08.39,0,.53a3.83,3.83,0,0,0-.09.56,6.85,6.85,0,0,1-.19.9,1.9,1.9,0,0,1-.5.76A2.2,2.2,0,0,1,99.8,20a2.15,2.15,0,0,1-1.36-.54,4.81,4.81,0,0,1-1-1.25c-.3-.51-.59-1-.88-1.53s-.56-1-.86-1.52-.62-1.07-.93-1.6-.45-.78-.67-1.18a9.12,9.12,0,0,0-.51-.91c-.21-.3-.35-.64-.53-1s-.3-.57-.48-.84S92.2,8.9,92,8.52s-.38-.64-.55-1a10.23,10.23,0,0,1-.53-1.17,10.09,10.09,0,0,1-.47-1.3A4.85,4.85,0,0,1,90.34,4.2Z" transform="translate(0)"/><path class="cls-1" d="M47.13,23.22c0-3.81,0-7.62,0-11.43a3,3,0,0,1,.61-1.92,2.79,2.79,0,0,1,2.12-1.13,3.11,3.11,0,0,1,1.86.48,2.9,2.9,0,0,1,.88.93A4.74,4.74,0,0,1,53,11.39a2.15,2.15,0,0,1,0,.51q0,11.26,0,22.55a4.09,4.09,0,0,1-.2,1.21,2.26,2.26,0,0,1-.3.54,2.75,2.75,0,0,1-1,.94,2.81,2.81,0,0,1-2.37.24,3.38,3.38,0,0,1-1-.53,3.44,3.44,0,0,1-.88-1.22,3.05,3.05,0,0,1-.18-1.34Z" transform="translate(0)"/><path class="cls-1" d="M105.09,25.13a4.23,4.23,0,0,1,1.75.52q3.36,1.73,6.69,3.5a11.52,11.52,0,0,1,1,.57,4.29,4.29,0,0,1,1.67,1.52,1.78,1.78,0,0,1,.15,1.16,4.8,4.8,0,0,1-.71,1.66c-.23.35-.51.66-.75,1a8.28,8.28,0,0,1-.82.86,8.65,8.65,0,0,1-1.17,1,9.94,9.94,0,0,1-1.56.94,2.68,2.68,0,0,1-1.5.23,1.93,1.93,0,0,1-1.13-.62,11,11,0,0,1-1.21-1.73c-.23-.33-.4-.69-.61-1s-.35-.68-.54-1c-.32-.61-.66-1.21-1-1.81s-.64-1.24-1-1.83-.55-1.1-.88-1.62a3.14,3.14,0,0,1-.27-.85,1.92,1.92,0,0,1,.5-1.93A1.87,1.87,0,0,1,105.09,25.13Z" transform="translate(0)"/><path class="cls-1" d="M101.29,29.24c0,.65-.09,1.29-.07,1.93s-.07,1.1-.07,1.66a5.07,5.07,0,0,0,0,1c0,.18-.13.34-.09.53a8,8,0,0,1,0,1.29,24.85,24.85,0,0,1-.18,2.58,5.43,5.43,0,0,1-.25,1.13,1.87,1.87,0,0,1-.84,1,2.66,2.66,0,0,1-1.2.36,8.94,8.94,0,0,1-2.77-.36A7.38,7.38,0,0,1,94.45,40a13.27,13.27,0,0,1-1.9-1,4,4,0,0,1-1.09-1,1.89,1.89,0,0,1-.17-1.88,9.56,9.56,0,0,1,1.09-1.85c.69-1,1.41-2,2.12-2.92.54-.73,1.1-1.44,1.63-2.18.39-.55.81-1.09,1.23-1.63a2.57,2.57,0,0,1,1.51-1,2,2,0,0,1,1.31.2,2.12,2.12,0,0,1,1,1.52A5.25,5.25,0,0,1,101.29,29.24Z" transform="translate(0)"/><path class="cls-1" d="M103.14,21.31a2.66,2.66,0,0,1,.57-1.48,9.74,9.74,0,0,1,.74-.83c.65-.71,1.33-1.38,2-2.06.42-.43.87-.82,1.27-1.27.6-.67,1.24-1.31,1.89-1.93a8.89,8.89,0,0,1,1.77-1.45,2.13,2.13,0,0,1,2.36.13,7.24,7.24,0,0,1,1.87,2,11.05,11.05,0,0,1,1.1,2,7.73,7.73,0,0,1,.42,1,3.79,3.79,0,0,1,.1,2.11,2.13,2.13,0,0,1-1.15,1.19,5.73,5.73,0,0,1-1.32.51c-.45.12-.91.2-1.36.33s-.82.15-1.22.25c-.6.14-1.18.32-1.78.42s-1.26.28-1.89.42c-.43.09-.85.18-1.27.3-.25.08-.54.08-.79.16a4.05,4.05,0,0,1-1.38.2,2,2,0,0,1-1.5-.8,3.23,3.23,0,0,1-.45-1A.62.62,0,0,1,103.14,21.31Z" transform="translate(0)"/><path class="cls-1" d="M86.83,17.83a4.54,4.54,0,0,1,1.5.24c1.5.47,3,1,4.45,1.52l1,.34,1,.37a26.2,26.2,0,0,1,2.59,1,2.09,2.09,0,0,1,.52.27,4.46,4.46,0,0,1,.6.76,2.08,2.08,0,0,1,.16,1.44,2,2,0,0,1-.91,1.2,4.5,4.5,0,0,1-.92.36c-.4.15-.83.18-1.24.3a12.24,12.24,0,0,1-1.2.27c-.36.06-.71.16-1.06.23-.64.15-1.29.26-1.92.43-.44.13-.9.17-1.34.32-.25.09-.54.09-.8.17-.54.16-1.1.19-1.64.37a1.33,1.33,0,0,1-.4,0,6,6,0,0,1-1.12,0,1.9,1.9,0,0,1-1.33-.92,3.51,3.51,0,0,1-.46-1,10,10,0,0,1-.15-1.1c0-.3,0-.6,0-.9a5.11,5.11,0,0,0,0-1c-.07-.28.13-.54,0-.79a4.7,4.7,0,0,0,.29-1.16A6.75,6.75,0,0,1,85,19a2.07,2.07,0,0,1,1.36-1.09A2.29,2.29,0,0,1,86.83,17.83Z" transform="translate(0)"/><path class="cls-1" d="M29,28.63s-.1,0-.08,0,.06,0,.1,0l0,0Z" transform="translate(0)"/></g></g></svg>